<svg width="128" height="60" fill="none" xmlns="http://www.w3.org/2000/svg"><g id="Group 196"><path id="R" fill-rule="evenodd" clip-rule="evenodd" d="M88.086 29.873 65.522 1.263c-.951-1.234-1.883-1.436-2.904-.11l-22.6 28.674 21.874 19.77 2.124-45.294 2.124 45.293 21.946-19.723Z" fill="url('#paint0_linear_639_639')"/><path id="R_2" d="m104.109 59.443 22.932-48.937c.492-1.072-.683-2.143-1.705-1.555l-34.29 19.71-22.289 25.108 35.352 5.674Z" fill="url('#paint1_linear_639_639')"/><path id="R_3" d="M23.891 59.443.96 10.506c-.492-1.072.683-2.143 1.705-1.555l34.29 19.71 22.288 25.108-35.35 5.674Z" fill="url('#paint2_linear_639_639')"/></g><defs><linearGradient id="paint0_linear_639_639" x1="63.883" y1="49.596" x2="63.883" y2=".244" gradientUnits="userSpaceOnUse"><stop stop-color="#6B57F9"/><stop offset="1" stop-color="#9787FF"/></linearGradient><linearGradient id="paint1_linear_639_639" x1="77.879" y1="39.532" x2="108.669" y2="57.022" gradientUnits="userSpaceOnUse"><stop stop-color="#6B57F9"/><stop offset="1" stop-color="#9787FF"/></linearGradient><linearGradient id="paint2_linear_639_639" x1="50.121" y1="39.532" x2="19.331" y2="57.022" gradientUnits="userSpaceOnUse"><stop stop-color="#6B57F9"/><stop offset="1" stop-color="#9787FF"/></linearGradient></defs></svg>